<mxfile host="app.diagrams.net" modified="2023-08-21T05:39:12.129Z" agent="Mozilla/5.0 (Windows NT 10.0; Win64; x64) AppleWebKit/537.36 (KHTML, like Gecko) Chrome/115.0.0.0 Safari/537.36" version="21.6.8" etag="acBUvpkSkB-sjVvWXiVe" type="github">
  <diagram name="Страница — 1" id="JxjHVT8tWZJoRaEshpQW">
    <mxGraphModel>
      <root>
        <mxCell id="0" />
        <mxCell id="1" parent="0" />
      </root>
    </mxGraphModel>
  </diagram>
</mxfile>
